<svg width="30" height="30" viewBox="0 0 30 30" fill="none" xmlns="http://www.w3.org/2000/svg">
<path fill-rule="evenodd" clip-rule="evenodd" d="M1.25 15C1.25 14.3096 1.80964 13.75 2.5 13.75H27.5C28.1904 13.75 28.75 14.3096 28.75 15C28.75 15.6904 28.1904 16.25 27.5 16.25H2.5C1.80964 16.25 1.25 15.6904 1.25 15Z" fill="#333333"/>
<path fill-rule="evenodd" clip-rule="evenodd" d="M1.25 22.5C1.25 21.8096 1.80964 21.25 2.5 21.25H27.5C28.1904 21.25 28.75 21.8096 28.75 22.5C28.75 23.1904 28.1904 23.75 27.5 23.75H2.5C1.80964 23.75 1.25 23.1904 1.25 22.5Z" fill="#333333"/>
<path fill-rule="evenodd" clip-rule="evenodd" d="M1.25 7.5C1.25 6.80964 1.80964 6.25 2.5 6.25H27.5C28.1904 6.25 28.75 6.80964 28.75 7.5C28.75 8.19036 28.1904 8.75 27.5 8.75H2.5C1.80964 8.75 1.25 8.19036 1.25 7.5Z" fill="#333333"/>
</svg>
