<svg width="40" height="40" viewBox="0 0 40 40" fill="none" xmlns="http://www.w3.org/2000/svg">
<path fill-rule="evenodd" clip-rule="evenodd" d="M9.58317 20C9.58317 19.0795 10.3294 18.3333 11.2498 18.3333H28.7498C29.6703 18.3333 30.4165 19.0795 30.4165 20C30.4165 20.9204 29.6703 21.6666 28.7498 21.6666L11.2498 21.6666C10.3294 21.6666 9.58317 20.9204 9.58317 20Z" fill="#1451EE"/>
<path fill-rule="evenodd" clip-rule="evenodd" d="M19.9998 9.58329C20.9203 9.58329 21.6665 10.3295 21.6665 11.25V28.75C21.6665 29.6704 20.9203 30.4166 19.9998 30.4166C19.0794 30.4166 18.3332 29.6704 18.3332 28.75V11.25C18.3332 10.3295 19.0794 9.58329 19.9998 9.58329Z" fill="#1451EE"/>
<path fill-rule="evenodd" clip-rule="evenodd" d="M19.9998 4.99996C11.7156 4.99996 4.99984 11.7157 4.99984 20C4.99984 28.2842 11.7156 35 19.9998 35C28.2841 35 34.9998 28.2842 34.9998 20C34.9998 11.7157 28.2841 4.99996 19.9998 4.99996ZM1.6665 20C1.6665 9.87474 9.87462 1.66663 19.9998 1.66663C30.1251 1.66663 38.3332 9.87474 38.3332 20C38.3332 30.1252 30.1251 38.3333 19.9998 38.3333C9.87462 38.3333 1.6665 30.1252 1.6665 20Z" fill="#1451EE"/>
</svg>
