<svg width="28" height="28" viewBox="0 0 28 28" fill="none" xmlns="http://www.w3.org/2000/svg">
<path d="M3.73333 0C1.6772 0 0 1.6772 0 3.73333V24.2667C0 26.3228 1.6772 28 3.73333 28H24.2667C26.3228 28 28 26.3228 28 24.2667V3.73333C28 1.67673 26.3228 0 24.2667 0H3.73333ZM3.73333 0.933333H24.2667C24.8284 0.933333 25.3488 1.0987 25.7861 1.38086L24.9594 2.75898C24.811 3.00585 24.7333 3.28818 24.7333 3.57565C24.7333 4.12772 25.0131 4.63248 25.4807 4.92461L27.0667 5.91628V7.56784L24.2366 5.66836C24.1349 5.60163 24.0111 5.58343 23.8911 5.61003C23.7759 5.64129 23.6789 5.72017 23.6159 5.82331C21.4664 9.33217 21.186 10.0685 20.2326 11.9529C18.602 15.1257 17.2612 18.8519 17.6313 20.2645L17.3341 20.7566C17.3266 20.7688 17.3261 20.7823 17.3195 20.7949C17.3149 20.8043 17.3069 20.8116 17.3031 20.8214C17.2971 20.8363 17.2982 20.8538 17.2931 20.8697C17.2833 20.9028 17.2754 20.9345 17.273 20.9681C17.2726 20.9784 17.2667 20.9874 17.2667 20.9982C17.2667 21.0154 17.2748 21.0315 17.2767 21.0483C17.2804 21.0828 17.2865 21.1163 17.2977 21.1495C17.3009 21.1579 17.2999 21.1675 17.3031 21.1759C17.3092 21.1899 17.3216 21.2016 17.3286 21.2151C17.3436 21.2436 17.3587 21.2706 17.3797 21.2953C17.3881 21.3065 17.3918 21.3192 17.4016 21.3299C17.4174 21.3449 17.439 21.3524 17.4572 21.3655C17.4702 21.3753 17.4778 21.3894 17.4918 21.3983C17.5049 21.4062 17.5197 21.4091 17.5337 21.4156C17.5473 21.4222 17.5598 21.4278 17.5738 21.4329C17.6261 21.4521 17.6797 21.4648 17.7333 21.4648H17.7342H17.7352C17.7902 21.4648 17.8429 21.4516 17.8947 21.4329C17.9063 21.4287 17.9172 21.4244 17.9284 21.4193C17.9751 21.3978 18.0191 21.3718 18.0569 21.3354C18.0592 21.3331 18.0637 21.3323 18.066 21.3299C18.0725 21.3225 18.0745 21.3128 18.0806 21.3053C18.0988 21.2843 18.1185 21.2654 18.1335 21.2406L18.3704 20.8478C19.7186 20.7619 22.2551 17.7256 24.6668 14.6134C25.7051 13.3226 25.9028 13.0213 27.0676 11.282V24.2667C27.0671 25.8188 25.8188 27.0667 24.2667 27.0667H3.73333C2.1812 27.0667 0.933333 25.8188 0.933333 24.2667V3.73333C0.933333 2.1812 2.1812 0.933333 3.73333 0.933333ZM8.75 7.46484C8.62623 7.46484 8.50753 7.51401 8.42002 7.60153C8.3325 7.68904 8.28333 7.80774 8.28333 7.93151C8.28333 8.05528 8.3325 8.17398 8.42002 8.26149C8.50753 8.34901 8.62623 8.39818 8.75 8.39818C8.87377 8.39818 8.99247 8.34901 9.07998 8.26149C9.1675 8.17398 9.21667 8.05528 9.21667 7.93151C9.21667 7.80774 9.1675 7.68904 9.07998 7.60153C8.99247 7.51401 8.87377 7.46484 8.75 7.46484ZM10.5 7.46484C10.3762 7.46484 10.2575 7.51401 10.17 7.60153C10.0825 7.68904 10.0333 7.80774 10.0333 7.93151C10.0333 8.05528 10.0825 8.17398 10.17 8.26149C10.2575 8.34901 10.3762 8.39818 10.5 8.39818C10.6238 8.39818 10.7425 8.34901 10.83 8.26149C10.9175 8.17398 10.9667 8.05528 10.9667 7.93151C10.9667 7.80774 10.9175 7.68904 10.83 7.60153C10.7425 7.51401 10.6238 7.46484 10.5 7.46484ZM12.25 7.46484C12.1262 7.46484 12.0075 7.51401 11.92 7.60153C11.8325 7.68904 11.7833 7.80774 11.7833 7.93151C11.7833 8.05528 11.8325 8.17398 11.92 8.26149C12.0075 8.34901 12.1262 8.39818 12.25 8.39818C12.3738 8.39818 12.4925 8.34901 12.58 8.26149C12.6675 8.17398 12.7167 8.05528 12.7167 7.93151C12.7167 7.80774 12.6675 7.68904 12.58 7.60153C12.4925 7.51401 12.3738 7.46484 12.25 7.46484ZM14 7.46484C13.8762 7.46484 13.7575 7.51401 13.67 7.60153C13.5825 7.68904 13.5333 7.80774 13.5333 7.93151C13.5333 8.05528 13.5825 8.17398 13.67 8.26149C13.7575 8.34901 13.8762 8.39818 14 8.39818C14.1238 8.39818 14.2425 8.34901 14.33 8.26149C14.4175 8.17398 14.4667 8.05528 14.4667 7.93151C14.4667 7.80774 14.4175 7.68904 14.33 7.60153C14.2425 7.51401 14.1238 7.46484 14 7.46484ZM15.75 7.46484C15.6262 7.46484 15.5075 7.51401 15.42 7.60153C15.3325 7.68904 15.2833 7.80774 15.2833 7.93151C15.2833 8.05528 15.3325 8.17398 15.42 8.26149C15.5075 8.34901 15.6262 8.39818 15.75 8.39818C15.8738 8.39818 15.9925 8.34901 16.08 8.26149C16.1675 8.17398 16.2167 8.05528 16.2167 7.93151C16.2167 7.80774 16.1675 7.68904 16.08 7.60153C15.9925 7.51401 15.8738 7.46484 15.75 7.46484ZM17.5 7.46484C17.3762 7.46484 17.2575 7.51401 17.17 7.60153C17.0825 7.68904 17.0333 7.80774 17.0333 7.93151C17.0333 8.05528 17.0825 8.17398 17.17 8.26149C17.2575 8.34901 17.3762 8.39818 17.5 8.39818C17.6238 8.39818 17.7425 8.34901 17.83 8.26149C17.9175 8.17398 17.9667 8.05528 17.9667 7.93151C17.9667 7.80774 17.9175 7.68904 17.83 7.60153C17.7425 7.51401 17.6238 7.46484 17.5 7.46484ZM19.25 7.46484C19.1262 7.46484 19.0075 7.51401 18.92 7.60153C18.8325 7.68904 18.7833 7.80774 18.7833 7.93151C18.7833 8.05528 18.8325 8.17398 18.92 8.26149C19.0075 8.34901 19.1262 8.39818 19.25 8.39818C19.3738 8.39818 19.4925 8.34901 19.58 8.26149C19.6675 8.17398 19.7167 8.05528 19.7167 7.93151C19.7167 7.80774 19.6675 7.68904 19.58 7.60153C19.4925 7.51401 19.3738 7.46484 19.25 7.46484ZM7.04557 7.46758C7.00007 7.46279 6.9537 7.46462 6.90703 7.47396C6.87903 7.47909 6.85027 7.48775 6.82227 7.50221C6.79427 7.51155 6.76641 7.52639 6.73841 7.54505L6.66823 7.60065C6.62623 7.64732 6.59404 7.69869 6.5707 7.75469C6.54737 7.81069 6.53333 7.87084 6.53333 7.93151C6.53333 8.05751 6.57956 8.17461 6.66823 8.26328C6.7149 8.30528 6.76627 8.33839 6.82227 8.36172C6.87827 8.38505 6.93933 8.39818 7 8.39818C7.06067 8.39818 7.12173 8.38505 7.17773 8.36172C7.23373 8.33839 7.2851 8.30528 7.33177 8.26328C7.42044 8.17461 7.46667 8.05751 7.46667 7.93151C7.46667 7.81018 7.41577 7.68885 7.33177 7.60065C7.2851 7.55865 7.2384 7.52555 7.17773 7.50221C7.13573 7.48355 7.09107 7.47236 7.04557 7.46758ZM21 7.46758C20.9393 7.46758 20.8783 7.47865 20.8223 7.50221C20.7616 7.52555 20.7149 7.55865 20.6682 7.60065C20.6262 7.64732 20.594 7.69869 20.5707 7.75469C20.5474 7.81069 20.5333 7.87084 20.5333 7.93151C20.5333 8.05751 20.5796 8.17461 20.6682 8.26328C20.7149 8.30528 20.7663 8.33839 20.8223 8.36172C20.8783 8.38505 20.9393 8.39818 21 8.39818C21.0607 8.39818 21.1217 8.38505 21.1777 8.36172C21.2337 8.33839 21.2851 8.30528 21.3318 8.26328C21.4204 8.17461 21.4667 8.05751 21.4667 7.93151C21.4667 7.87084 21.4526 7.81069 21.4293 7.75469C21.406 7.69869 21.3738 7.64732 21.3318 7.60065C21.2898 7.55865 21.2384 7.52555 21.1777 7.50221C21.1217 7.47865 21.0607 7.46758 21 7.46758ZM8.86667 11.6648C8.7429 11.6648 8.6242 11.714 8.53668 11.8015C8.44917 11.889 8.4 12.0077 8.4 12.1315C8.4 12.2553 8.44917 12.374 8.53668 12.4615C8.6242 12.549 8.7429 12.5982 8.86667 12.5982C8.99043 12.5982 9.10913 12.549 9.19665 12.4615C9.28417 12.374 9.33333 12.2553 9.33333 12.1315C9.33333 12.0077 9.28417 11.889 9.19665 11.8015C9.10913 11.714 8.99043 11.6648 8.86667 11.6648ZM10.7333 11.6648C10.6096 11.6648 10.4909 11.714 10.4033 11.8015C10.3158 11.889 10.2667 12.0077 10.2667 12.1315C10.2667 12.2553 10.3158 12.374 10.4033 12.4615C10.4909 12.549 10.6096 12.5982 10.7333 12.5982C10.8571 12.5982 10.9758 12.549 11.0633 12.4615C11.1508 12.374 11.2 12.2553 11.2 12.1315C11.2 12.0077 11.1508 11.889 11.0633 11.8015C10.9758 11.714 10.8571 11.6648 10.7333 11.6648ZM12.6 11.6648C12.4762 11.6648 12.3575 11.714 12.27 11.8015C12.1825 11.889 12.1333 12.0077 12.1333 12.1315C12.1333 12.2553 12.1825 12.374 12.27 12.4615C12.3575 12.549 12.4762 12.5982 12.6 12.5982C12.7238 12.5982 12.8425 12.549 12.93 12.4615C13.0175 12.374 13.0667 12.2553 13.0667 12.1315C13.0667 12.0077 13.0175 11.889 12.93 11.8015C12.8425 11.714 12.7238 11.6648 12.6 11.6648ZM14.4667 11.6648C14.3429 11.6648 14.2242 11.714 14.1367 11.8015C14.0492 11.889 14 12.0077 14 12.1315C14 12.2553 14.0492 12.374 14.1367 12.4615C14.2242 12.549 14.3429 12.5982 14.4667 12.5982C14.5904 12.5982 14.7091 12.549 14.7966 12.4615C14.8842 12.374 14.9333 12.2553 14.9333 12.1315C14.9333 12.0077 14.8842 11.889 14.7966 11.8015C14.7091 11.714 14.5904 11.6648 14.4667 11.6648ZM16.3333 11.6648C16.2096 11.6648 16.0909 11.714 16.0033 11.8015C15.9158 11.889 15.8667 12.0077 15.8667 12.1315C15.8667 12.2553 15.9158 12.374 16.0033 12.4615C16.0909 12.549 16.2096 12.5982 16.3333 12.5982C16.4571 12.5982 16.5758 12.549 16.6633 12.4615C16.7508 12.374 16.8 12.2553 16.8 12.1315C16.8 12.0077 16.7508 11.889 16.6633 11.8015C16.5758 11.714 16.4571 11.6648 16.3333 11.6648ZM18.2 11.6648C18.0762 11.6648 17.9575 11.714 17.87 11.8015C17.7825 11.889 17.7333 12.0077 17.7333 12.1315C17.7333 12.2553 17.7825 12.374 17.87 12.4615C17.9575 12.549 18.0762 12.5982 18.2 12.5982C18.3238 12.5982 18.4425 12.549 18.53 12.4615C18.6175 12.374 18.6667 12.2553 18.6667 12.1315C18.6667 12.0077 18.6175 11.889 18.53 11.8015C18.4425 11.714 18.3238 11.6648 18.2 11.6648ZM7 11.6712C6.8775 11.6712 6.75456 11.7143 6.66823 11.8007C6.58423 11.8889 6.53333 12.0102 6.53333 12.1315C6.53333 12.2575 6.57956 12.3746 6.66823 12.4633C6.7569 12.5515 6.87867 12.5982 7 12.5982C7.12133 12.5982 7.2431 12.5515 7.33177 12.4633C7.42044 12.3746 7.46667 12.2575 7.46667 12.1315C7.46667 12.0102 7.41577 11.8889 7.33177 11.8007C7.24544 11.7143 7.1225 11.6712 7 11.6712ZM8.78737 15.8648C8.6636 15.8648 8.5449 15.914 8.45739 16.0015C8.36987 16.089 8.3207 16.2077 8.3207 16.3315C8.3207 16.4553 8.36987 16.574 8.45739 16.6615C8.5449 16.749 8.6636 16.7982 8.78737 16.7982C8.91114 16.7982 9.02984 16.749 9.11735 16.6615C9.20487 16.574 9.25404 16.4553 9.25404 16.3315C9.25404 16.2077 9.20487 16.089 9.11735 16.0015C9.02984 15.914 8.91114 15.8648 8.78737 15.8648ZM10.5793 15.8648C10.4555 15.8648 10.3368 15.914 10.2493 16.0015C10.1618 16.089 10.1126 16.2077 10.1126 16.3315C10.1126 16.4553 10.1618 16.574 10.2493 16.6615C10.3368 16.749 10.4555 16.7982 10.5793 16.7982C10.7031 16.7982 10.8218 16.749 10.9093 16.6615C10.9968 16.574 11.046 16.4553 11.046 16.3315C11.046 16.2077 10.9968 16.089 10.9093 16.0015C10.8218 15.914 10.7031 15.8648 10.5793 15.8648ZM12.3667 15.8648C12.2429 15.8648 12.1242 15.914 12.0367 16.0015C11.9492 16.089 11.9 16.2077 11.9 16.3315C11.9 16.4553 11.9492 16.574 12.0367 16.6615C12.1242 16.749 12.2429 16.7982 12.3667 16.7982C12.4904 16.7982 12.6091 16.749 12.6967 16.6615C12.7842 16.574 12.8333 16.4553 12.8333 16.3315C12.8333 16.2077 12.7842 16.089 12.6967 16.0015C12.6091 15.914 12.4904 15.8648 12.3667 15.8648ZM14.154 15.8648C14.0303 15.8648 13.9116 15.914 13.8241 16.0015C13.7365 16.089 13.6874 16.2077 13.6874 16.3315C13.6874 16.4553 13.7365 16.574 13.8241 16.6615C13.9116 16.749 14.0303 16.7982 14.154 16.7982C14.2778 16.7982 14.3965 16.749 14.484 16.6615C14.5715 16.574 14.6207 16.4553 14.6207 16.3315C14.6207 16.2077 14.5715 16.089 14.484 16.0015C14.3965 15.914 14.2778 15.8648 14.154 15.8648ZM15.946 15.8648C15.8222 15.8648 15.7035 15.914 15.616 16.0015C15.5285 16.089 15.4793 16.2077 15.4793 16.3315C15.4793 16.4553 15.5285 16.574 15.616 16.6615C15.7035 16.749 15.8222 16.7982 15.946 16.7982C16.0697 16.7982 16.1884 16.749 16.2759 16.6615C16.3635 16.574 16.4126 16.4553 16.4126 16.3315C16.4126 16.2077 16.3635 16.089 16.2759 16.0015C16.1884 15.914 16.0697 15.8648 15.946 15.8648ZM7 15.8712C6.87867 15.8712 6.7569 15.9143 6.66823 16.0007C6.62623 16.0473 6.59404 16.094 6.5707 16.1547C6.54737 16.2107 6.53333 16.2708 6.53333 16.3315C6.53333 16.3922 6.54737 16.4532 6.5707 16.5092C6.59404 16.5652 6.62623 16.6161 6.66823 16.6633C6.7569 16.7515 6.874 16.7982 7 16.7982C7.06067 16.7982 7.12173 16.7851 7.17773 16.7617C7.23373 16.7384 7.2851 16.7053 7.33177 16.6633C7.37377 16.6161 7.40585 16.5652 7.43385 16.5092C7.45719 16.4532 7.46667 16.3922 7.46667 16.3315C7.46667 16.2102 7.41577 16.0889 7.33177 16.0007C7.2431 15.9143 7.12133 15.8712 7 15.8712ZM10.727 19.7112C10.6675 19.7003 10.6049 19.7008 10.5419 19.7148C10.2899 19.7657 10.1315 20.0179 10.1828 20.2699C10.2341 20.4897 10.4257 20.6391 10.6404 20.6391C10.673 20.6391 10.7052 20.6343 10.7379 20.6254C10.9899 20.5741 11.153 20.3223 11.097 20.0703C11.055 19.8813 10.9055 19.744 10.727 19.7112ZM12.3986 20.1286C12.2813 20.1513 12.1729 20.2191 12.1005 20.3264C11.9559 20.5411 12.0116 20.8303 12.2263 20.9754C12.3056 21.0263 12.3946 21.0547 12.4879 21.0547C12.6372 21.0547 12.7819 20.9849 12.8753 20.8496C13.0199 20.6349 12.9595 20.3453 12.7495 20.2007C12.6421 20.1281 12.5158 20.106 12.3986 20.1286ZM8.89492 20.5534C8.83411 20.554 8.77213 20.5669 8.71263 20.5926C8.47463 20.6906 8.36763 20.9662 8.46562 21.2042C8.54496 21.3815 8.71759 21.484 8.89492 21.484C8.96026 21.484 9.0211 21.4741 9.08177 21.4466V21.4521C9.3151 21.3494 9.42689 21.0739 9.32422 20.8359C9.25072 20.6571 9.07736 20.5514 8.89492 20.5534ZM7.04557 21.0018C6.90951 20.9883 6.76623 21.036 6.66823 21.134C6.62623 21.1807 6.59404 21.232 6.5707 21.288C6.54737 21.344 6.53333 21.4042 6.53333 21.4648C6.53333 21.5255 6.54737 21.5866 6.5707 21.6426C6.59404 21.6986 6.62623 21.7495 6.66823 21.7966C6.7569 21.8848 6.874 21.9315 7 21.9315C7.126 21.9315 7.2431 21.8848 7.33177 21.7966C7.42044 21.7079 7.46667 21.5908 7.46667 21.4648C7.46667 21.4042 7.45263 21.344 7.4293 21.288C7.40596 21.232 7.37377 21.1807 7.33177 21.134C7.2851 21.092 7.23373 21.0589 7.17773 21.0355C7.13573 21.0169 7.09093 21.0063 7.04557 21.0018ZM14.103 21.1878C13.9219 21.1904 13.7518 21.3006 13.6783 21.4794C13.5803 21.7174 13.6918 21.9885 13.9298 22.0865C13.9905 22.1098 14.0469 22.1238 14.1076 22.1238C14.2896 22.1238 14.4667 22.016 14.5414 21.834C14.6394 21.5955 14.5224 21.3204 14.2844 21.2224C14.2249 21.1979 14.1634 21.1869 14.103 21.1878ZM15.9277 21.4138C15.6711 21.4651 15.5073 21.7078 15.5586 21.9598C15.6006 22.1838 15.7968 22.338 16.0161 22.338C16.0441 22.338 16.0764 22.3336 16.1091 22.3289C16.3611 22.278 16.525 22.0349 16.4737 21.7829C16.4224 21.5263 16.1797 21.3625 15.9277 21.4138Z" fill="#333333" fill-opacity="0.6"/>
</svg>
