<svg width="30" height="30" viewBox="0 0 30 30" fill="none" xmlns="http://www.w3.org/2000/svg">
<g clip-path="url(#clip0_103_433)">
<path d="M28.75 13.75H26.25V11.25C26.25 10.9185 26.1183 10.6005 25.8839 10.3661C25.6495 10.1317 25.3315 10 25 10C24.6685 10 24.3505 10.1317 24.1161 10.3661C23.8817 10.6005 23.75 10.9185 23.75 11.25V13.75H21.25C20.9185 13.75 20.6005 13.8817 20.3661 14.1161C20.1317 14.3505 20 14.6685 20 15C20 15.3315 20.1317 15.6495 20.3661 15.8839C20.6005 16.1183 20.9185 16.25 21.25 16.25H23.75V18.75C23.75 19.0815 23.8817 19.3995 24.1161 19.6339C24.3505 19.8683 24.6685 20 25 20C25.3315 20 25.6495 19.8683 25.8839 19.6339C26.1183 19.3995 26.25 19.0815 26.25 18.75V16.25H28.75C29.0815 16.25 29.3995 16.1183 29.6339 15.8839C29.8683 15.6495 30 15.3315 30 15C30 14.6685 29.8683 14.3505 29.6339 14.1161C29.3995 13.8817 29.0815 13.75 28.75 13.75Z" fill="#333333" fill-opacity="0.6"/>
<path d="M11.25 15C12.7334 15 14.1834 14.5601 15.4168 13.736C16.6501 12.9119 17.6114 11.7406 18.1791 10.3701C18.7468 8.99968 18.8953 7.49168 18.6059 6.03683C18.3165 4.58197 17.6022 3.2456 16.5533 2.1967C15.5044 1.14781 14.168 0.433503 12.7132 0.144114C11.2583 -0.145275 9.75032 0.00324965 8.37987 0.570907C7.00943 1.13856 5.83809 2.09986 5.01398 3.33323C4.18987 4.5666 3.75 6.01664 3.75 7.5C3.75199 9.48852 4.5428 11.395 5.94889 12.8011C7.35499 14.2072 9.26149 14.998 11.25 15ZM11.25 2.5C12.2389 2.5 13.2056 2.79325 14.0279 3.34266C14.8501 3.89206 15.491 4.67296 15.8694 5.58659C16.2478 6.50022 16.3469 7.50555 16.1539 8.47546C15.961 9.44536 15.4848 10.3363 14.7855 11.0355C14.0863 11.7348 13.1954 12.211 12.2255 12.4039C11.2555 12.5969 10.2502 12.4978 9.33658 12.1194C8.42295 11.741 7.64206 11.1001 7.09265 10.2779C6.54324 9.45561 6.25 8.48891 6.25 7.5C6.25 6.17392 6.77678 4.90215 7.71447 3.96447C8.65215 3.02679 9.92392 2.5 11.25 2.5Z" fill="#333333" fill-opacity="0.6"/>
<path d="M11.25 17.5C8.26733 17.5033 5.40777 18.6896 3.2987 20.7987C1.18964 22.9078 0.00330857 25.7673 0 28.75C0 29.0815 0.131696 29.3995 0.366117 29.6339C0.600537 29.8683 0.918479 30 1.25 30C1.58152 30 1.89946 29.8683 2.13388 29.6339C2.3683 29.3995 2.5 29.0815 2.5 28.75C2.5 26.4294 3.42187 24.2038 5.06282 22.5628C6.70376 20.9219 8.92936 20 11.25 20C13.5706 20 15.7962 20.9219 17.4372 22.5628C19.0781 24.2038 20 26.4294 20 28.75C20 29.0815 20.1317 29.3995 20.3661 29.6339C20.6005 29.8683 20.9185 30 21.25 30C21.5815 30 21.8995 29.8683 22.1339 29.6339C22.3683 29.3995 22.5 29.0815 22.5 28.75C22.4967 25.7673 21.3104 22.9078 19.2013 20.7987C17.0922 18.6896 14.2327 17.5033 11.25 17.5Z" fill="#333333" fill-opacity="0.6"/>
</g>
<defs>
<clipPath id="clip0_103_433">
<rect width="30" height="30" fill="white"/>
</clipPath>
</defs>
</svg>
